<svg width="380" height="245" fill="none" xmlns="http://www.w3.org/2000/svg"><g clip-path="url(#clip0)"><path d="M362.817 150.937a.897.897 0 01-.919-.918v-2.624c0-.524.394-.918.919-.918.524 0 .918.394.918.918v2.624a.897.897 0 01-.918.918zM377.114 239.608h-3.738a.896.896 0 01-.918-.918c0-.525.393-.918.918-.918h3.738c.263 0 .525-.132.722-.328.328-.394.918-.394 1.311 0 .394.328.394.918 0 1.311a2.875 2.875 0 01-2.033.853zm-8.985 0h-5.247a.897.897 0 01-.918-.918c0-.525.394-.918.918-.918h5.247c.525 0 .918.393.918.918a.896.896 0 01-.918.918zm-10.559 0h-5.247a.896.896 0 01-.918-.918c0-.525.393-.918.918-.918h5.247c.525 0 .918.393.918.918a.896.896 0 01-.918.918zm-10.494 0h-5.247a.897.897 0 01-.918-.918c0-.525.394-.918.918-.918h5.247c.525 0 .918.393.918.918 0 .524-.459.918-.918.918zm-10.559 0h-5.247a.897.897 0 01-.918-.918c0-.525.394-.918.918-.918h5.247c.525 0 .918.393.918.918a.896.896 0 01-.918.918zm-10.559 0h-5.247a.896.896 0 01-.918-.918c0-.525.393-.918.918-.918h5.247c.525 0 .918.393.918.918a.896.896 0 01-.918.918zm-10.559 0h-5.247a.896.896 0 01-.918-.918c0-.525.393-.918.918-.918h5.247c.524 0 .918.393.918.918a.897.897 0 01-.918.918zm-10.494 0h-5.247a.897.897 0 01-.918-.918c0-.525.394-.918.918-.918h5.247c.525 0 .918.393.918.918 0 .524-.459.918-.918.918zm-10.559 0h-5.247a.896.896 0 01-.918-.918c0-.525.393-.918.918-.918h5.247c.525 0 .918.393.918.918a.896.896 0 01-.918.918zm-10.559 0h-5.247a.896.896 0 01-.918-.918c0-.525.393-.918.918-.918h5.247c.524 0 .918.393.918.918a.897.897 0 01-.918.918zm-10.56 0h-5.246a.897.897 0 01-.919-.918c0-.525.394-.918.919-.918h5.246c.525 0 .919.393.919.918a.897.897 0 01-.919.918zm-10.493 0h-5.247a.896.896 0 01-.918-.918c0-.525.393-.918.918-.918h5.247c.525 0 .918.393.918.918 0 .524-.459.918-.918.918zm-10.559 0h-5.247a.896.896 0 01-.918-.918c0-.525.393-.918.918-.918h5.247c.524 0 .918.393.918.918a.897.897 0 01-.918.918zm-10.56 0h-5.246a.897.897 0 01-.919-.918c0-.525.394-.918.919-.918h5.246c.525 0 .919.393.919.918a.897.897 0 01-.919.918zm-10.559 0h-5.247a.897.897 0 01-.918-.918c0-.525.394-.918.918-.918h5.247c.525 0 .918.393.918.918a.896.896 0 01-.918.918zm-10.493 0h-5.247a.896.896 0 01-.918-.918c0-.525.393-.918.918-.918h5.247c.524 0 .918.393.918.918a.897.897 0 01-.918.918zm-10.56 0h-5.246a.897.897 0 01-.919-.918c0-.525.394-.918.919-.918h5.246c.525 0 .919.393.919.918a.897.897 0 01-.919.918zm-10.559 0h-5.247a.897.897 0 01-.918-.918c0-.525.394-.918.918-.918h5.247c.525 0 .918.393.918.918a.896.896 0 01-.918.918zm-10.559 0h-5.247a.897.897 0 01-.918-.918c0-.525.394-.918.918-.918h5.247c.525 0 .918.393.918.918a.896.896 0 01-.918.918zm-10.494 0h-5.246a.897.897 0 01-.919-.918c0-.525.394-.918.919-.918h5.246c.525 0 .919.393.919.918a.897.897 0 01-.919.918zm-10.559 0h-5.247a.897.897 0 01-.918-.918c0-.525.394-.918.918-.918h5.247c.525 0 .918.393.918.918a.896.896 0 01-.918.918zm-10.428-.722c-.131 0-.328-.065-.459-.131-1.836-1.049-3.017-2.951-3.082-5.05 0-.524.393-.918.852-.984.525 0 .918.394.984.853.066 1.509.853 2.82 2.164 3.542.459.262.591.852.328 1.246a.851.851 0 01-.787.524zm221.678-4.984a.896.896 0 01-.918-.918v-5.247c0-.525.393-.918.918-.918.524 0 .918.393.918.918v5.247c0 .459-.394.918-.918.918zm-224.301-4.591a.896.896 0 01-.918-.918v-5.247c0-.525.393-.918.918-.918.524 0 .918.393.918.918v5.247a.896.896 0 01-.918.918zm224.301-5.968a.896.896 0 01-.918-.918v-5.247c0-.525.393-.918.918-.918.524 0 .918.393.918.918v5.247c0 .459-.394.918-.918.918zm-224.301-4.591a.896.896 0 01-.918-.918v-5.247c0-.525.393-.918.918-.918.524 0 .918.393.918.918v5.247c0 .524-.459.918-.918.918zm224.301-5.968a.897.897 0 01-.918-.919v-5.246c0-.525.393-.919.918-.919.524 0 .918.394.918.919v5.246a.897.897 0 01-.918.919zm-224.367-4.526a.896.896 0 01-.918-.918v-5.247c0-.524.394-.918.918-.918.525 0 .918.394.918.918v5.247c.066.459-.393.918-.918.918zm223.973-5.968c-.262 0-.59-.131-.787-.394-.197-.262-.524-.459-.852-.459h-3.411a.896.896 0 01-.918-.918c0-.524.394-.918.918-.918h3.411c.918 0 1.836.459 2.361 1.246.328.394.196.984-.197 1.312-.131.131-.328.131-.525.131zm-10.231-.787h-5.247a.897.897 0 01-.918-.918c0-.525.394-.918.918-.918h5.247c.525 0 .918.393.918.918a.896.896 0 01-.918.918zm-10.559 0h-5.247a.896.896 0 01-.918-.918c0-.525.393-.918.918-.918h5.247c.524 0 .918.393.918.918a.897.897 0 01-.918.918zm-10.559 0h-5.247a.896.896 0 01-.918-.918c0-.525.393-.918.918-.918h5.247c.524 0 .918.393.918.918a.897.897 0 01-.918.918zm-10.494 0h-3.214a2.813 2.813 0 01-2.492-1.443c-.262-.459-.131-.984.328-1.246s.984-.131 1.246.328c.197.328.525.525.918.525h3.214c.525 0 .918.393.918.918 0 .524-.459.918-.918.918zm-182.13-3.804a.896.896 0 01-.918-.918v-5.247c0-.525.394-.918.918-.918.525 0 .918.393.918.918v5.247c.066.459-.393.918-.918.918zm176.949-2.427a.896.896 0 01-.918-.918v-5.247c0-.524.393-.918.918-.918.524 0 .918.394.918.918v5.247a.896.896 0 01-.918.918zm-176.949-8.132a.897.897 0 01-.918-.918v-5.247c0-.525.394-.918.918-.918.525 0 .918.393.918.918v5.247a.896.896 0 01-.918.918zm176.949-2.427a.896.896 0 01-.918-.918v-2.82c0-1.246.787-2.361 1.967-2.755.459-.196.984.066 1.181.591.196.459-.066.983-.591 1.18-.393.131-.721.525-.721.984v2.82a.896.896 0 01-.918.918zm29.185-4.788h-1.508a.897.897 0 01-.919-.918c0-.524.394-.918.919-.918h1.508c.59 0 1.049-.459 1.049-1.049v-.656c0-.525.394-.918.919-.918.524 0 .918.393.918.918v.656c0 1.574-1.312 2.885-2.886 2.885zm-6.821 0h-5.247a.896.896 0 01-.918-.918c0-.524.394-.918.918-.918h5.247c.525 0 .918.394.918.918a.896.896 0 01-.918.918zm-10.493 0h-5.247a.896.896 0 01-.918-.918c0-.524.393-.918.918-.918h5.247c.524 0 .918.394.918.918 0 .525-.459.918-.918.918zm-188.82-3.344a.897.897 0 01-.918-.919v-5.246c0-.525.394-.919.918-.919.525 0 .918.394.918.919v5.246a.897.897 0 01-.918.919zm208.102-4.526a.897.897 0 01-.919-.918v-5.247c0-.524.394-.918.919-.918.524 0 .918.394.918.918v5.247c0 .459-.394.918-.918.918zm-208.102-5.968a.896.896 0 01-.918-.918v-5.247c0-.525.394-.918.918-.918.525 0 .918.393.918.918v5.247c0 .459-.393.918-.918.918zm208.102-4.591a.897.897 0 01-.919-.918v-5.247c0-.525.394-.918.919-.918.524 0 .918.393.918.918v5.247c0 .459-.394.918-.918.918zm-208.102-5.968a.897.897 0 01-.918-.918v-5.247c0-.525.394-.918.918-.918.525 0 .918.393.918.918v5.247c0 .459-.393.918-.918.918zm0-10.559a.897.897 0 01-.918-.919v-5.246c0-.525.394-.919.918-.919.525 0 .918.394.918.919v5.246a.897.897 0 01-.918.919zm0-10.56a.896.896 0 01-.918-.918v-5.247c0-.524.394-.918.918-.918.525 0 .918.394.918.918v5.247c0 .525-.459.918-.918.918zm-.065-10.493a.897.897 0 01-.919-.918v-5.247c0-.525.394-.918.919-.918.524 0 .918.393.918.918v5.247c.065.459-.394.918-.918.918zm0-10.559a.898.898 0 01-.919-.919v-5.246c0-.525.394-.919.919-.919.524 0 .918.394.918.919v5.246c.065.525-.394.919-.918.919zm0-10.56a.897.897 0 01-.919-.918v-5.247c0-.524.394-.918.919-.918.524 0 .918.394.918.918v5.247a.896.896 0 01-.918.918zm0-10.559a.897.897 0 01-.919-.918v-5.247c0-.524.394-.918.919-.918.524 0 .918.394.918.918v5.247a.897.897 0 01-.918.918zm0-10.493a.897.897 0 01-.919-.919V76.63c0-.394.066-.853.132-1.246.131-.525.59-.853 1.115-.722.524.132.852.59.721 1.115-.066.263-.066.59-.066.853v4.197c-.065.46-.459.919-.983.919zm3.344-9.117c-.393 0-.721-.197-.852-.59-.197-.46.065-1.05.525-1.18a6.378 6.378 0 012.229-.394h3.345c.525 0 .918.394.918.918a.896.896 0 01-.918.918h-3.345c-.524 0-1.049.066-1.574.263-.065 0-.196.065-.328.065zm42.828-.393h-.656a.897.897 0 01-.919-.918c0-.525.394-.919.919-.919h.656c.59 0 1.049-.459 1.049-1.049v-1.508c0-.525.393-.919.918-.919s.918.394.918.919v1.508c0 1.574-1.311 2.886-2.885 2.886zm-5.969 0h-5.247a.897.897 0 01-.918-.918c0-.525.394-.919.918-.919h5.247c.525 0 .918.394.918.919a.896.896 0 01-.918.918zm-10.559 0h-5.247a.897.897 0 01-.918-.918c0-.525.394-.919.918-.919h5.247c.525 0 .918.394.918.919a.896.896 0 01-.918.918zm-10.494 0h-5.246a.897.897 0 01-.919-.918c0-.525.394-.919.919-.919h5.246c.525 0 .919.394.919.919a.897.897 0 01-.919.918zM202.789 63.446a.896.896 0 01-.918-.918v-2.623c0-.525.393-.918.918-.918s.918.393.918.918v2.623a.896.896 0 01-.918.918z" fill="#5699FF"/><path d="M311.004 82.073H112.61v111.166h198.394V82.073z" fill="#D8F3FF"/><path d="M311.004 194.157H112.61a.897.897 0 01-.919-.918V82.073c0-.525.394-.919.919-.919h198.394c.525 0 .919.394.919.919v111.166a.897.897 0 01-.919.918zm-197.476-1.836h196.558V83.056H113.528v109.265z" fill="#5699FF"/><path d="M341.502 38.262c0-.066 0-.066 0 0 0-4.526-3.673-8.198-8.133-8.198-.656 0-1.312.065-1.902.196-7.083-13.904-21.512-23.48-38.17-23.48-13.708 0-25.841 6.428-33.711 16.397-1.509-.393-3.083-.656-4.722-.656-9.707 0-17.577 7.87-17.577 17.577 0 1.64.262 3.214.656 4.657-11.478 1.77-20.266 11.74-20.266 23.676 0 13.248 10.756 24.004 24.004 24.004H339.6c15.019 0 27.152-12.133 27.152-27.152 0-14.298-11.15-26.038-25.25-27.021z" fill="#8FD1FF"/><path d="M292.182 54.133c-8.199 0-14.888 6.69-14.888 14.888s6.689 14.888 14.888 14.888c8.263 0 14.887-6.69 14.887-14.888s-6.624-14.888-14.887-14.888zm29.906 23.48l-2.689 6.493 4.788 9.444.656 1.246-6.624 6.624-10.887-5.181-6.493 2.689-3.279 10.034-.394 1.312h-9.379l-4.066-11.346-6.493-2.69-9.444 4.789-1.246.59-6.69-6.624 5.116-10.887-2.689-6.493-10.035-3.28-1.311-.459v-9.313l11.346-4.066 2.689-6.493-4.788-9.444-.656-1.246 6.624-6.624 10.887 5.115 6.493-2.689 3.28-10.034.393-1.312h9.379l4.066 11.346 6.427 2.69 9.445-4.788 1.246-.656 6.624 6.624-4.985 10.953 2.689 6.492 10.1 3.28 1.312.393v9.379l-11.412 4.132z" fill="#5699FF"/><path d="M188.164 221.834c12.243 0 22.167-9.866 22.167-22.036 0-12.171-9.924-22.037-22.167-22.037-12.243 0-22.168 9.866-22.168 22.037 0 12.17 9.925 22.036 22.168 22.036z" fill="#B284E4"/><path fill-rule="evenodd" clip-rule="evenodd" d="M201.018 197.634h-10.624v-10.56c0-1.18-.984-2.23-2.23-2.23-1.247 0-2.23.984-2.23 2.23v10.56h-10.625c-1.246 0-2.23.983-2.23 2.229 0 1.181.984 2.23 2.23 2.23h10.625v10.56c0 1.18.983 2.229 2.23 2.229 1.246 0 2.23-.983 2.23-2.229v-10.56h10.624c1.246 0 2.23-.983 2.23-2.23a2.211 2.211 0 00-2.23-2.229z" fill="#fff"/><path fill-rule="evenodd" clip-rule="evenodd" d="M191.312 36.163c2.295 4.919 6.952 12.789 11.543 20.594 4.853-8.002 9.706-16.069 12.067-20.988 4.657-9.968-.065-22.298-12.067-22.298-12.593.065-16.331 12.46-11.543 22.692zm11.608-15.085a6.228 6.228 0 016.231 6.23c0 3.477-2.82 6.231-6.231 6.231-3.41 0-6.23-2.82-6.23-6.23-.066-3.476 2.754-6.23 6.23-6.23zM351.077 123.26c2.295 4.919 6.952 12.789 11.543 20.594 4.853-8.002 9.707-16.069 12.068-20.987 4.656-9.969-.066-22.299-12.068-22.299-12.592.065-16.331 12.526-11.543 22.692zm11.543-15.019c3.476 0 6.231 2.82 6.231 6.231 0 3.476-2.821 6.23-6.231 6.23a6.228 6.228 0 01-6.231-6.23c0-3.476 2.821-6.231 6.231-6.231z" fill="#B284E4"/><path fill-rule="evenodd" clip-rule="evenodd" d="M186.262 99.321c-2.033-5.18-7.084-8.92-13.052-8.92-7.739 0-13.969 6.297-13.969 13.97 0 7.74 6.296 13.97 13.969 13.97 5.903 0 10.953-3.673 13.052-8.919h6.82c.263 0 .46-.066.722-.197l3.148-2.099a1.304 1.304 0 011.377 0l2.82 1.902c.394.262.984.262 1.378 0l2.754-1.836c.459-.263.984-.263 1.378 0l2.426 1.705c.525.328 1.181.262 1.574-.131l9.313-9.445h-33.71zm-20.463 9.182c-2.23 0-4.066-1.836-4.066-4.066 0-2.23 1.836-4.066 4.066-4.066 2.23 0 4.066 1.836 4.066 4.066 0 2.23-1.836 4.066-4.066 4.066z" fill="#8FD1FF"/><path d="M336.911 229.246h-89.393c-5.903 0-10.756-4.788-10.756-10.756v-82.113c0-5.903 4.788-10.756 10.756-10.756h89.393c5.902 0 10.756 4.788 10.756 10.756v82.113a10.72 10.72 0 01-10.756 10.756z" fill="#CDAFED"/><path d="M336.911 230.164h-89.393c-6.427 0-11.674-5.247-11.674-11.674v-82.113c0-6.427 5.247-11.674 11.674-11.674h89.393c6.427 0 11.674 5.247 11.674 11.674v82.113c0 6.492-5.247 11.674-11.674 11.674zm-89.393-103.559c-5.378 0-9.838 4.394-9.838 9.838v82.112c0 5.378 4.395 9.838 9.838 9.838h89.393c5.378 0 9.837-4.394 9.837-9.838v-82.178c0-5.378-4.394-9.838-9.837-9.838h-89.393v.066z" fill="#B284E4"/><path fill-rule="evenodd" clip-rule="evenodd" d="M335.861 172.121c0-.066 0-.066-.065-.131v-.131-.132-.131-.131-.066-.131a1.75 1.75 0 01-.328-.787c-.066-.656.065-1.967-.066-3.213-.197-1.246-.787-2.427-2.23-2.952-1.443-.524-3.804-.459-7.608-1.639-3.804-1.181-9.116-3.608-14.166-4.854-5.05-1.311-9.969-1.443-14.757-1.246-4.787.197-9.509.722-13.838 2.165-4.329 1.442-8.264 3.738-11.215 5.05-2.886 1.246-4.788 1.442-8.264 2.23-3.476.787-8.592 2.098-11.412 3.344-2.754 1.246-3.345 2.427-3.607 4.198v.065c-.262 1.771-.262 4.198.918 5.641.919 1.18 2.624 1.836 5.182 2.23-.394-1.05-.656-2.165-.656-3.345v-.525-.131-.328-.197c0-.131 0-.197.065-.328 0-.065 0-.131.066-.196 0-.132.065-.197.065-.328 0-.066 0-.132.066-.197 0-.131.066-.197.066-.328 0-.066 0-.131.065-.131.066-.131.066-.263.131-.394v-.065c.066-.132.132-.328.197-.459 0-.066.066-.066.066-.132.065-.131.065-.196.131-.328 1.508-3.016 4.591-5.115 8.132-5.115 3.542 0 6.625 2.033 8.133 5.05.066.065.066.197.131.262 0 .066.066.131.066.197.065.131.065.197.131.328 0 .066.066.065.066.131.065.131.131.328.131.459v.066c.065.131.065.262.131.393 0 .066 0 .131.065.197 0 .131.066.197.066.328 0 .066 0 .131.066.197 0 .131.065.196.065.328v1.246c0 1.443-.328 2.82-.918 4 1.902 0 3.935-.065 6.296-.065 9.379-.197 22.758-.59 32.596-1.049-.328-.919-.459-1.902-.459-2.886v-.394-.131-.393c0-.132 0-.263.065-.394v-.066c0-.131.066-.196.066-.327v-.132c0-.131.066-.262.066-.393.065-.131.065-.262.131-.394 0-.065 0-.065.065-.131 0-.131.066-.197.132-.328v-.065c.065-.132.065-.263.131-.394 0 0 0-.065.065-.065.066-.066.066-.197.131-.263 0-.065 0-.065.066-.131.066-.131.131-.262.197-.328.065-.131.131-.197.197-.328l.065-.065c1.574-2.624 4.46-4.329 7.739-4.329a9.194 9.194 0 017.28 3.607s0 .066.066.066c.065.065.131.197.196.262 0 .066.066.066.066.131.066.066.131.131.131.263 0 .065.066.065.066.131.065.065.065.197.131.262 0 .066.066.066.066.131.131.263.262.459.327.722 0 .065 0 .065.066.131s.066.197.131.262c0 .066 0 .066.066.131 0 .066.065.197.065.263 0 .065 0 .065.066.131 0 .131.066.197.066.328v.065c.065.132.065.263.065.394v.066c0 .131.066.196.066.327v.132c0 .065 0 .196.065.262v.984c0 .59-.065 1.246-.196 1.771a45.175 45.175 0 002.557-.394c2.296-.393 3.935-.787 4.919-1.377.984-.591 1.246-1.378 1.378-2.624 0-.983 0-2.557-.263-3.41z" fill="#B284E4"/><path d="M318.153 185.632a7.346 7.346 0 100-14.692 7.346 7.346 0 000 14.692zM264.542 185.312a7.346 7.346 0 10-4.258-14.06 7.346 7.346 0 004.258 14.06z" fill="#B284E4"/><path d="M305.758 155.921v-7.083a13.49 13.49 0 00-13.511-13.51 13.49 13.49 0 00-13.51 13.51v7.083c-2.689.132-4.854 2.361-4.854 5.05v13.249a18.333 18.333 0 0018.364 18.363c10.1 0 18.364-8.198 18.364-18.363v-13.249c-.066-2.689-2.164-4.918-4.853-5.05zm-9.707 25.447h-7.805l1.509-10.493c-1.312-.853-2.23-2.296-2.23-4.001a4.703 4.703 0 014.722-4.722 4.702 4.702 0 014.722 4.722 4.687 4.687 0 01-2.361 4.066l1.443 10.428zm4.722-25.447h-17.052v-7.083a8.51 8.51 0 018.526-8.526 8.51 8.51 0 018.526 8.526v7.083z" fill="#9150D9"/><path fill-rule="evenodd" clip-rule="evenodd" d="M251.388 201.569h81.653c1.049 0 1.968.852 1.968 1.967 0 1.05-.853 1.968-1.968 1.968h-81.653a1.973 1.973 0 01-1.968-1.968c0-1.115.853-1.967 1.968-1.967zM264.505 212.456h55.419c1.049 0 1.968.852 1.968 1.967 0 1.05-.853 1.968-1.968 1.968h-55.419a1.973 1.973 0 01-1.968-1.968c0-1.049.853-1.967 1.968-1.967z" fill="#B284E4"/><path fill-rule="evenodd" clip-rule="evenodd" d="M132.744 243.871H10.1a9.167 9.167 0 01-9.182-9.182V38.983a9.167 9.167 0 019.182-9.182h122.644a9.167 9.167 0 019.182 9.182V234.69c.066 5.05-4.066 9.182-9.182 9.182z" fill="#D8F3FF"/><path fill-rule="evenodd" clip-rule="evenodd" d="M132.482 243.871H10.494c-5.247 0-9.51-4.263-9.51-9.51v-50.697h141.008v50.697c0 5.247-4.263 9.51-9.51 9.51z" fill="#8FD1FF"/><path d="M132.744 244.789H10.1c-5.575 0-10.1-4.525-10.1-10.1V38.983c0-5.64 4.525-10.166 10.166-10.166H132.81c5.575 0 10.165 4.526 10.165 10.166V234.69c-.065 5.575-4.656 10.1-10.231 10.1zM10.166 30.654c-4.591 0-8.264 3.738-8.264 8.263V234.69c0 4.591 3.738 8.264 8.264 8.264H132.81c4.591 0 8.264-3.739 8.264-8.264V38.983c0-4.59-3.739-8.264-8.264-8.264H10.166v-.065z" fill="#5699FF"/><path fill-rule="evenodd" clip-rule="evenodd" d="M64.405 205.635h67.88c1.049 0 1.968.852 1.968 1.967 0 1.05-.853 1.968-1.968 1.968h-67.88a1.974 1.974 0 01-1.968-1.968c0-1.115.918-1.967 1.968-1.967zM64.405 215.932h67.88c1.049 0 1.968.852 1.968 1.967 0 1.05-.853 1.968-1.968 1.968h-67.88a1.974 1.974 0 01-1.968-1.968c0-1.049.918-1.967 1.968-1.967z" fill="#5699FF"/><path d="M29.579 234.689c11.265 0 20.397-9.132 20.397-20.397 0-11.265-9.132-20.397-20.397-20.397-11.265 0-20.397 9.132-20.397 20.397 0 11.265 9.132 20.397 20.397 20.397z" fill="#5699FF"/><path fill-rule="evenodd" clip-rule="evenodd" d="M42.5 198.486l-12.921 15.806h20.397c0-6.427-2.886-12.068-7.477-15.806z" fill="#D8F3FF"/><path fill-rule="evenodd" clip-rule="evenodd" d="M62.896 90.467c.721-.918.721-2.426.59-3.541-.13-1.115-.459-1.837-2.23-2.624-1.77-.787-4.918-1.64-7.083-2.098-2.164-.46-3.345-.59-5.115-1.378-1.837-.787-4.263-2.23-6.952-3.148-2.69-.918-5.64-1.246-8.658-1.311-3.017-.132-6.034 0-9.181.787-3.149.787-6.494 2.295-8.854 3.017-2.362.721-3.805.655-4.723.983-.918.328-1.246 1.115-1.377 1.837-.131.787 0 1.574-.066 1.967-.065.394-.327.46-.459.984-.13.525-.13 1.509-.065 2.23.065.721.262 1.246.852 1.64.59.393 1.64.59 3.083.852.459.066.918.131 1.574.197-.066-.394-.131-.722-.131-1.115 0-3.148 2.558-5.64 5.64-5.64 3.083 0 5.64 2.557 5.64 5.64 0 .656-.13 1.246-.262 1.836 6.165.263 14.494.525 20.331.656 1.443 0 2.755.066 3.936.066a5.567 5.567 0 01-.59-2.493c0-3.148 2.557-5.64 5.64-5.64 3.082 0 5.64 2.558 5.64 5.64a5.68 5.68 0 01-.394 2.1c1.64-.329 2.624-.722 3.214-1.444z" fill="#B284E4"/><path fill-rule="evenodd" clip-rule="evenodd" d="M21.643 81.023l.46-2.164c-1.247.393-2.428.853-3.542 1.246l-.197.787 3.28.131zM23.086 78.597l-.46 2.492 9.445.262-.393-4.132c-.59 0-1.181 0-1.837.066-2.164.131-4.394.59-6.296 1.115-.066.065-.262.13-.46.197zM34.301 77.285l.393 4.066 13.839.394c-2.033-1.05-4.132-2.034-6.165-2.755a29.008 29.008 0 00-6.165-1.443c-.525-.131-1.18-.197-1.902-.262zM60.732 84.499c-.394-.197-1.115-.393-1.509-.393-.459 0-.655.262-.393.524.328.263 1.115.525 1.64.59.524.066.72-.065.72-.262.067-.066 0-.262-.458-.459z" fill="#D8F3FF"/><path d="M24.307 90.855a4.59 4.59 0 10-8.936-2.11 4.59 4.59 0 008.936 2.11z" fill="#B284E4"/><path fill-rule="evenodd" clip-rule="evenodd" d="M19.807 92.829a3.009 3.009 0 01-3.017-3.017 3.009 3.009 0 013.017-3.017 3.009 3.009 0 013.017 3.017c.065 1.64-1.312 3.017-3.017 3.017z" fill="#D8F3FF"/><path d="M19.807 90.533a.721.721 0 100-1.443.721.721 0 000 1.443zM59.062 90.85a4.59 4.59 0 10-8.936-2.11 4.59 4.59 0 008.936 2.11z" fill="#B284E4"/><path fill-rule="evenodd" clip-rule="evenodd" d="M54.567 92.829a3.009 3.009 0 01-3.017-3.017 3.009 3.009 0 013.017-3.017 3.009 3.009 0 013.017 3.017 3.009 3.009 0 01-3.017 3.017z" fill="#D8F3FF"/><path fill-rule="evenodd" clip-rule="evenodd" d="M54.567 90.467a.728.728 0 01-.722-.721c0-.394.328-.722.722-.722.393 0 .721.328.721.722a.728.728 0 01-.721.721zM62.896 161.496c.721-.918.721-2.427.59-3.542-.13-1.115-.459-1.836-2.23-2.623-1.77-.787-4.918-1.64-7.083-2.099-2.164-.459-3.345-.59-5.115-1.377-1.837-.787-4.263-2.23-6.952-3.148-2.69-.918-5.64-1.246-8.658-1.312-3.017-.131-6.034 0-9.181.787-3.149.787-6.494 2.296-8.854 3.017-2.362.722-3.805.656-4.723.984-.918.328-1.246 1.115-1.377 1.836-.131.787 0 1.574-.066 1.968-.065.393-.327.459-.459.984-.13.524-.13 1.508-.065 2.229.065.722.262 1.247.852 1.64.59.394 1.64.59 3.083.853.459.065.918.131 1.574.196-.066-.393-.131-.721-.131-1.114a5.64 5.64 0 015.64-5.641c3.083 0 5.64 2.558 5.64 5.641 0 .655-.13 1.246-.262 1.836 6.165.262 14.494.525 20.331.656 1.443 0 2.755.065 3.936.065a5.564 5.564 0 01-.59-2.492c0-3.148 2.557-5.64 5.64-5.64 3.082 0 5.64 2.558 5.64 5.64a5.68 5.68 0 01-.394 2.099c1.64-.328 2.624-.722 3.214-1.443z" fill="#B284E4"/><path fill-rule="evenodd" clip-rule="evenodd" d="M21.643 152.052l.46-2.165c-1.247.394-2.428.853-3.542 1.247l-.197.787 3.28.131zM23.086 149.559l-.46 2.493 9.445.262-.393-4.132c-.59 0-1.181 0-1.837.066-2.164.131-4.394.59-6.296 1.115-.066.131-.262.196-.46.196zM34.301 148.313l.393 4.067 13.839.393c-2.033-1.049-4.132-2.033-6.165-2.755a29.018 29.018 0 00-6.165-1.442c-.525-.132-1.18-.197-1.902-.263zM60.732 155.528c-.394-.197-1.115-.394-1.509-.394-.459 0-.655.263-.393.525.328.262 1.115.525 1.64.59.524.066.72-.065.72-.262.067-.066 0-.262-.458-.459z" fill="#D8F3FF"/><path d="M24.242 161.869a4.591 4.591 0 10-8.936-2.11 4.591 4.591 0 008.937 2.11z" fill="#B284E4"/><path fill-rule="evenodd" clip-rule="evenodd" d="M19.807 163.857a3.009 3.009 0 01-3.017-3.017 3.01 3.01 0 013.017-3.017 3.01 3.01 0 013.017 3.017c.065 1.64-1.312 3.017-3.017 3.017z" fill="#D8F3FF"/><path d="M19.807 161.496a.722.722 0 100-1.443.722.722 0 000 1.443zM58.998 161.863a4.591 4.591 0 10-8.937-2.11 4.591 4.591 0 008.937 2.11z" fill="#B284E4"/><path fill-rule="evenodd" clip-rule="evenodd" d="M54.567 163.857a3.009 3.009 0 01-3.017-3.017 3.01 3.01 0 013.017-3.017 3.01 3.01 0 013.017 3.017 3.009 3.009 0 01-3.017 3.017z" fill="#D8F3FF"/><path fill-rule="evenodd" clip-rule="evenodd" d="M54.567 161.496a.728.728 0 01-.722-.722c0-.393.328-.721.722-.721.393 0 .721.328.721.721a.728.728 0 01-.721.722zM65.192 122.342c-1.378-1.115-2.82-2.23-4.657-3.148-1.902-.853-4.263-1.509-5.903-1.968-1.64-.459-2.557-.721-4.263-1.377-1.705-.656-4.132-1.705-6.69-2.361-2.557-.656-5.312-.918-11.018-.459-5.64.393-14.297 1.508-18.691 2.098-4.395.591-4.657.591-4.788.787-.131.197-.197.525-.262 1.574-.132 1.05-.328 2.755-.132 4.001.197 1.246.722 1.968 2.361 2.689.328.131.656.262 1.05.394 0-.197-.066-.394-.066-.591 0-3.017 2.427-5.509 5.444-5.509s5.509 2.427 5.509 5.444c0 .918-.197 1.771-.656 2.558l24.988-.066c-.393-.787-.656-1.64-.656-2.558 0-3.017 2.427-5.509 5.444-5.509s5.509 2.427 5.509 5.444c0 .918-.197 1.77-.656 2.557h7.936c.065-1.246.131-2.623.197-4z" fill="#B284E4"/><path d="M20.812 127.187a4.59 4.59 0 10-6.492-6.492 4.59 4.59 0 006.492 6.492z" fill="#B284E4"/><path fill-rule="evenodd" clip-rule="evenodd" d="M17.642 126.998a3.079 3.079 0 003.083-3.082 3.08 3.08 0 00-3.083-3.083 3.08 3.08 0 00-3.082 3.083 3.079 3.079 0 003.082 3.082z" fill="#D8F3FF"/><path fill-rule="evenodd" clip-rule="evenodd" d="M17.577 124.637a.728.728 0 00.721-.721.728.728 0 00-.721-.722.728.728 0 00-.722.722c.066.393.328.721.722.721zM52.271 128.441c2.558 0 4.591-2.099 4.591-4.656 0-2.558-2.099-4.591-4.656-4.591-2.558 0-4.591 2.098-4.591 4.656s2.099 4.657 4.656 4.591z" fill="#B284E4"/><path fill-rule="evenodd" clip-rule="evenodd" d="M52.271 126.933a3.08 3.08 0 003.083-3.083 3.079 3.079 0 00-3.083-3.082 3.079 3.079 0 00-3.082 3.082 3.08 3.08 0 003.082 3.083z" fill="#D8F3FF"/><path fill-rule="evenodd" clip-rule="evenodd" d="M52.271 124.572a.728.728 0 00.722-.722.728.728 0 00-.722-.721.728.728 0 00-.721.721c0 .394.328.722.721.722z" fill="#B284E4"/><path fill-rule="evenodd" clip-rule="evenodd" d="M48.074 116.373c-1.77-.655-3.542-1.377-5.247-1.77a23.94 23.94 0 00-4.853-.656c-1.705-.066-3.542 0-5.378.065-.263.853-.525 1.706-.853 2.558 2.951.328 5.837.656 8.526.787 2.624.131 5.05.066 7.411 0 .197-.328.263-.656.394-.984zM31.35 113.947c-.263.918-.46 1.771-.722 2.689-2.623-.459-5.247-.918-7.87-1.443 2.951-.459 5.771-.853 8.592-1.246zM10.56 116.701c-.329-.328-.919-.393-1.575-.393-.065.262-.065.59-.131 1.246a12.037 12.037 0 00-.131 1.705 6.559 6.559 0 001.508-.918c.59-.59.656-1.312.328-1.64zM58.436 118.407c-.065.59 0 1.18.197 1.574.262.524.853.721 1.77.984.919.262 2.165.59 3.083.327.066 0 .132-.065.197-.065a16.753 16.753 0 00-3.214-1.968c-.59-.328-1.311-.656-2.033-.852z" fill="#D8F3FF"/><path fill-rule="evenodd" clip-rule="evenodd" d="M129.399 163.267h-50.96c-3.016 0-5.508-2.492-5.508-5.509 0-3.017 2.492-5.509 5.509-5.509h50.959c3.017 0 5.51 2.492 5.51 5.509a5.5 5.5 0 01-5.51 5.509zM129.399 90.795h-50.96c-3.016 0-5.508-2.492-5.508-5.509 0-3.017 2.492-5.509 5.509-5.509h50.959c3.017 0 5.51 2.492 5.51 5.51a5.5 5.5 0 01-5.51 5.508zM129.399 126.474h-50.96c-3.016 0-5.508-2.493-5.508-5.51 0-3.016 2.492-5.509 5.509-5.509h50.959c3.017 0 5.51 2.493 5.51 5.509a5.501 5.501 0 01-5.51 5.51z" fill="#8FD1FF"/><path fill-rule="evenodd" clip-rule="evenodd" d="M93.983 115.455H78.374c-3.017 0-5.509 2.493-5.509 5.509 0 3.017 2.492 5.51 5.51 5.51h15.608v-11.019zM113.003 79.777H78.44c-3.017 0-5.51 2.492-5.51 5.51 0 3.016 2.493 5.508 5.51 5.508h34.563V79.777z" fill="#5699FF"/><path fill-rule="evenodd" clip-rule="evenodd" d="M99.361 11.569V9.076a7.613 7.613 0 00-7.608-7.607h-40.4a7.613 7.613 0 00-7.608 7.607v2.493c0 2.885-2.36 5.246-5.247 5.246h-2.557a7.613 7.613 0 00-7.608 7.608v10.69a7.613 7.613 0 007.608 7.608h71.028a7.613 7.613 0 007.608-7.607v-10.69a7.613 7.613 0 00-7.608-7.609h-2.361a5.22 5.22 0 01-5.247-5.246z" fill="#CDAFED"/><path d="M106.969 43.64H35.941a8.509 8.509 0 01-8.526-8.526v-10.69a8.509 8.509 0 018.526-8.527h2.557c2.361 0 4.329-1.967 4.329-4.328V9.076A8.51 8.51 0 0151.353.55h40.335a8.51 8.51 0 018.526 8.526v2.493c0 2.36 1.968 4.328 4.329 4.328h2.361a8.51 8.51 0 018.526 8.526v10.69c.065 4.723-3.739 8.527-8.461 8.527zM35.941 17.734c-3.673 0-6.69 3.016-6.69 6.69v10.69c0 3.672 3.017 6.69 6.69 6.69h71.028c3.673 0 6.69-3.018 6.69-6.69v-10.69c0-3.674-3.017-6.69-6.69-6.69h-2.361a6.158 6.158 0 01-6.165-6.165V9.076c0-3.672-3.017-6.69-6.69-6.69h-40.4c-3.673 0-6.69 3.018-6.69 6.69v2.493a6.158 6.158 0 01-6.165 6.165h-2.557z" fill="#B284E4"/><path d="M64.077 7.699H49.386V22.39h14.69V7.699zM93.459 7.699H78.768V22.39h14.69V7.699zM49.386 22.39H34.694v14.691h14.691v-14.69zM78.768 22.39H64.077v14.691h14.69v-14.69zM108.15 22.39H93.459v14.691h14.691v-14.69z" fill="#9150D9"/><path fill-rule="evenodd" clip-rule="evenodd" d="M37.318 60.167H13.379a4.702 4.702 0 01-4.722-4.722 4.702 4.702 0 014.722-4.722h23.939a4.702 4.702 0 014.722 4.722 4.702 4.702 0 01-4.722 4.722z" fill="#8FD1FF"/><path fill-rule="evenodd" clip-rule="evenodd" d="M60.47 60.167h-7.28a4.702 4.702 0 01-4.723-4.722 4.702 4.702 0 014.723-4.722h7.28a4.703 4.703 0 014.722 4.722 4.703 4.703 0 01-4.723 4.722z" fill="#5699FF"/><path d="M133.597 51.838h-13.445c-.722 0-1.312-.59-1.312-1.312 0-.721.59-1.312 1.312-1.312h13.445c.721 0 1.312.59 1.312 1.312 0 .721-.591 1.312-1.312 1.312zM133.597 56.757h-13.445c-.722 0-1.312-.59-1.312-1.312 0-.721.59-1.312 1.312-1.312h13.445c.721 0 1.312.59 1.312 1.312 0 .721-.591 1.312-1.312 1.312zM133.597 61.741h-13.445c-.722 0-1.312-.59-1.312-1.312 0-.721.59-1.311 1.312-1.311h13.445c.721 0 1.312.59 1.312 1.311 0 .722-.591 1.312-1.312 1.312z" fill="#5699FF"/><path fill-rule="evenodd" clip-rule="evenodd" d="M224.563 139.919c-.328-.525-.721-1.05-1.18-1.443-.918.197-2.165-.066-3.083-.328-.918-.262-1.508-.459-1.77-.984-.197-.393-.197-.984-.197-1.574-.066 0-.197-.065-.263-.065-2.623-.853-5.378-1.181-7.411-1.312-2.033-.131-3.345-.066-4.722 0-3.673-2.755-7.28-5.509-11.936-6.952-4.591-1.378-10.166-1.443-15.478-1.312-5.313.131-10.363.394-13.117.328-2.689-.066-3.083-.459-3.739-.656-.656-.197-1.639-.131-2.361-.065-.721.065-1.246.196-.984.459.263.262 1.247.787 1.837 1.115.524.393.59.655-.525 1.967s-3.41 3.673-4.656 7.28c-1.247 3.607-1.509 8.461-1.706 13.248h2.361c-.262-.787-.393-1.705-.393-2.558 0-4.984 4.066-8.985 9.051-8.985 4.984 0 9.05 4.001 9.05 8.985 0 .919-.131 1.771-.393 2.558h31.35c-.263-.787-.394-1.705-.394-2.558 0-4.984 4.066-8.985 9.051-8.985 4.984 0 9.051 4.001 9.051 8.985 0 .919-.132 1.771-.394 2.558h3.673c.328-.459.721-.852.787-2.623.065-1.705-.197-4.853-1.509-7.083z" fill="#5699FF"/><path fill-rule="evenodd" clip-rule="evenodd" d="M164.225 154.216c-3.869 0-7.083-3.148-7.083-7.017 0-3.87 3.148-7.018 7.083-7.018 3.87 0 7.083 3.148 7.083 7.018 0 3.869-3.213 7.017-7.083 7.017z" fill="#5699FF"/><path fill-rule="evenodd" clip-rule="evenodd" d="M164.225 152.642c-3.017 0-5.509-2.426-5.509-5.443 0-3.017 2.492-5.444 5.509-5.444 3.017 0 5.509 2.427 5.509 5.444s-2.492 5.443-5.509 5.443z" fill="#D8F3FF"/><path fill-rule="evenodd" clip-rule="evenodd" d="M164.225 148.904a1.693 1.693 0 01-1.705-1.705c0-.918.787-1.705 1.705-1.705.984 0 1.705.787 1.705 1.705s-.721 1.705-1.705 1.705z" fill="#5699FF"/><path fill-rule="evenodd" clip-rule="evenodd" d="M198.526 133.426c2.427-.853-.197-2.558-3.017-3.738-2.82-1.115-5.771-1.706-8.264-1.968-2.492-.262-4.525-.262-6.558-.197.131 2.23.328 4.394.459 6.624 7.542.066 15.019.132 17.38-.721zM178.195 127.589c.131 2.164.328 4.263.459 6.427-6.624-.131-13.248-.328-19.873-.459 1.509-1.837 2.952-3.673 4.46-5.509 4.985-.131 9.969-.328 14.954-.459z" fill="#D8F3FF"/><path fill-rule="evenodd" clip-rule="evenodd" d="M212.758 154.216c-3.87 0-7.083-3.148-7.083-7.017 0-3.87 3.148-7.018 7.083-7.018 3.87 0 7.083 3.148 7.083 7.018 0 3.869-3.213 7.017-7.083 7.017z" fill="#5699FF"/><path fill-rule="evenodd" clip-rule="evenodd" d="M212.758 152.642c-3.017 0-5.509-2.426-5.509-5.443 0-3.017 2.492-5.444 5.509-5.444 3.017 0 5.509 2.427 5.509 5.444s-2.492 5.443-5.509 5.443z" fill="#D8F3FF"/><path fill-rule="evenodd" clip-rule="evenodd" d="M212.758 148.904a1.693 1.693 0 01-1.705-1.705c0-.918.787-1.705 1.705-1.705.984 0 1.705.787 1.705 1.705s-.721 1.705-1.705 1.705z" fill="#5699FF"/><path fill-rule="evenodd" clip-rule="evenodd" d="M155.109 161.824h68.864c1.049 0 1.968.853 1.968 1.968a1.973 1.973 0 01-1.968 1.967h-68.864a1.973 1.973 0 01-1.968-1.967c.066-1.05.918-1.968 1.968-1.968z" fill="#8FD1FF"/><path d="M278.737 111.717H238.73a1.903 1.903 0 000 3.804h40.007a1.904 1.904 0 001.902-1.902 1.904 1.904 0 00-1.902-1.902z" fill="#B284E4"/><path d="M254.732 100.896h-16.068a1.903 1.903 0 00-1.902 1.901c0 1.05.853 1.902 1.902 1.902h16.068a1.903 1.903 0 000-3.803z" fill="#9150D9"/></g><defs><clipPath id="clip0"><path fill="#fff" transform="translate(0 .55)" d="M0 0h380v244.239H0z"/></clipPath></defs></svg>