<svg width="380" height="214" fill="none" xmlns="http://www.w3.org/2000/svg"><g clip-path="url(#clip0)"><path d="M152.24 170.689H12.598A11.635 11.635 0 01.933 159.024V80.038c0-6.465 5.2-11.665 11.665-11.665H152.24c6.466 0 11.665 5.2 11.665 11.665v78.986a11.635 11.635 0 01-11.665 11.665z" fill="#D8F3FF"/><path d="M152.24 171.622H12.598C5.666 171.622 0 165.956 0 159.024V80.038C0 73.106 5.666 67.44 12.598 67.44H152.24c6.932 0 12.598 5.666 12.598 12.598v78.986c0 6.932-5.599 12.598-12.598 12.598zM12.598 69.306c-5.933 0-10.732 4.8-10.732 10.732v78.986c0 5.932 4.8 10.732 10.732 10.732H152.24c5.932 0 10.731-4.8 10.731-10.732V80.038a10.724 10.724 0 00-10.731-10.731H12.598z" fill="#5699FF"/><path d="M152.24 170.689H12.598A11.635 11.635 0 01.933 159.024V80.038c0-6.465 5.2-11.665 11.665-11.665H152.24c6.466 0 11.665 5.2 11.665 11.665v78.986a11.635 11.635 0 01-11.665 11.665z" fill="#D8F3FF"/><path d="M152.24 171.622H12.598C5.666 171.622 0 165.956 0 159.024V80.038C0 73.106 5.666 67.44 12.598 67.44H152.24c6.932 0 12.598 5.666 12.598 12.598v78.986c0 6.932-5.599 12.598-12.598 12.598zM12.598 69.306c-5.933 0-10.732 4.8-10.732 10.732v78.986c0 5.932 4.8 10.732 10.732 10.732H152.24c5.932 0 10.731-4.8 10.731-10.732V80.038a10.724 10.724 0 00-10.731-10.731H12.598z" fill="#5699FF"/><path fill-rule="evenodd" clip-rule="evenodd" d="M51.99 95.502h116.514c3.533 0 6.465-2.866 6.465-6.465 0-3.533-2.866-6.466-6.465-6.466H51.991c-3.533 0-6.466 2.866-6.466 6.466.067 3.599 2.933 6.465 6.466 6.465z" fill="#fff"/><path d="M366.802 119.298H241.491c-6.732 0-12.198-5.466-12.198-12.198V29.78c0-6.732 5.466-12.198 12.198-12.198h125.311c6.732 0 12.198 5.466 12.198 12.198v77.32c.067 6.732-5.466 12.198-12.198 12.198z" fill="#CDAFED"/><path d="M366.802 120.231H241.491c-7.265 0-13.131-5.932-13.131-13.131V29.78c0-7.265 5.932-13.13 13.131-13.13h125.311c7.266 0 13.131 5.931 13.131 13.13v77.32c.067 7.265-5.865 13.131-13.131 13.131zM241.558 18.449c-6.199 0-11.265 5.066-11.265 11.264v77.32c0 6.199 5.066 11.265 11.265 11.265h125.311c6.199 0 11.265-5.066 11.265-11.265v-77.32c0-6.198-5.066-11.264-11.265-11.264H241.558z" fill="#B284E4"/><path fill-rule="evenodd" clip-rule="evenodd" d="M222.161 98.035h86.252c1.066 0 1.999.866 1.999 2a2.005 2.005 0 01-1.999 1.999h-86.252c-1.066 0-2-.866-2-1.999 0-1.067.934-2 2-2zM222.161 86.637h86.252c1.066 0 1.999.866 1.999 2 0 1.066-.866 2-1.999 2h-86.252c-1.066 0-2-.867-2-2 0-1.134.934-2 2-2z" fill="#9150D9"/><path fill-rule="evenodd" clip-rule="evenodd" d="M307.279 67.24c1.733-2.2 1.733-5.732 1.4-8.398-.4-2.666-1.133-4.4-5.332-6.266-4.133-1.866-11.731-3.866-16.864-4.999-5.132-1.133-7.865-1.4-12.198-3.266-4.332-1.866-10.131-5.333-16.597-7.465-6.399-2.133-13.398-2.867-20.463-3.2-7.065-.267-14.264-.066-21.796 1.867s-15.331 5.465-20.996 7.198c-5.666 1.733-9.066 1.6-11.265 2.4-2.133.8-3 2.6-3.266 4.399-.267 1.8 0 3.733-.134 4.733-.133 1-.733 1.066-.999 2.266-.334 1.2-.4 3.532-.2 5.266.2 1.733.6 2.932 2.066 3.866 1.466.866 3.933 1.466 7.265 2 1.067.2 2.267.332 3.8.532-.2-.866-.267-1.733-.267-2.666 0-7.399 5.999-13.397 13.398-13.397 7.398 0 13.397 5.998 13.397 13.397 0 1.467-.266 2.933-.666 4.266 14.597.6 34.327 1.267 48.191 1.533 3.466.067 6.533.133 9.265.133-.866-1.8-1.399-3.799-1.399-5.932 0-7.399 5.999-13.397 13.397-13.397 7.399 0 13.398 5.998 13.398 13.397 0 1.733-.333 3.4-.933 4.933 3.932-.467 6.399-1.4 7.798-3.2z" fill="#B284E4"/><path fill-rule="evenodd" clip-rule="evenodd" d="M209.43 44.91l1-5.065c-3 .933-5.666 1.933-8.399 3l-.4 1.932 7.799.134zM212.896 39.045l-1.133 5.932 22.463.6-1-9.731c-1.4 0-2.866.066-4.333.2-5.132.4-10.398 1.466-14.864 2.666a5.62 5.62 0 01-1.133.333zM239.491 36.112l1 9.665 32.861.933c-4.866-2.4-9.732-4.865-14.531-6.598-4.799-1.733-9.598-2.8-14.597-3.467-1.6-.266-3.2-.4-4.733-.533zM302.147 53.176c-.933-.467-2.6-.933-3.666-.867-1.067.067-1.6.6-.867 1.2.734.6 2.733 1.267 3.933 1.467 1.2.2 1.666-.2 1.8-.533.066-.4-.267-.8-1.2-1.267z" fill="#CDAFED"/><path d="M215.606 68.185c1.379-5.84-2.237-11.691-8.077-13.07-5.84-1.379-11.691 2.237-13.07 8.077-1.379 5.84 2.237 11.691 8.077 13.07 5.839 1.379 11.691-2.237 13.07-8.077z" fill="#B284E4"/><path fill-rule="evenodd" clip-rule="evenodd" d="M205.031 72.906c-4 0-7.199-3.266-7.199-7.199 0-4 3.266-7.199 7.199-7.199 3.999 0 7.198 3.267 7.198 7.2.067 3.932-3.199 7.198-7.198 7.198z" fill="#CDAFED"/><path d="M205.031 67.307a1.666 1.666 0 100-3.333 1.666 1.666 0 000 3.333zM298.033 68.153c1.379-5.84-2.237-11.69-8.076-13.07-5.84-1.379-11.692 2.237-13.071 8.077-1.379 5.84 2.238 11.692 8.077 13.07 5.84 1.38 11.692-2.237 13.07-8.077z" fill="#B284E4"/><path fill-rule="evenodd" clip-rule="evenodd" d="M287.483 72.906c-3.999 0-7.199-3.266-7.199-7.199 0-4 3.266-7.199 7.199-7.199 3.999 0 7.199 3.267 7.199 7.2 0 3.932-3.266 7.198-7.199 7.198z" fill="#CDAFED"/><path fill-rule="evenodd" clip-rule="evenodd" d="M287.483 67.307a1.65 1.65 0 01-1.666-1.666 1.65 1.65 0 011.666-1.667 1.65 1.65 0 011.666 1.667 1.65 1.65 0 01-1.666 1.666z" fill="#B284E4"/><path fill-rule="evenodd" clip-rule="evenodd" d="M40.993 157.291h113.58c2.199 0 3.999 1.8 3.999 3.999v24.529c0 2.2-1.8 4-3.999 4H40.993c-2.2 0-4-1.8-4-4V161.29c0-2.199 1.8-3.999 4-3.999z" fill="#CDAFED"/><path fill-rule="evenodd" clip-rule="evenodd" d="M54.124 166.423c4.2 0 7.598 3.266 7.598 7.332s-3.399 7.332-7.598 7.332c-4.2 0-7.599-3.266-7.599-7.332s3.4-7.332 7.599-7.332z" fill="#9150D9"/><path fill-rule="evenodd" clip-rule="evenodd" d="M71.054 171.889h58.323c1.067 0 1.867.866 1.867 1.866a1.864 1.864 0 01-1.867 1.866H71.054a1.863 1.863 0 01-1.866-1.866c0-1.066.866-1.866 1.866-1.866z" fill="#B284E4"/><path d="M347.206 138.894h-15.064a3.726 3.726 0 01-3.733-3.732v-.4a3.726 3.726 0 013.733-3.733h15.064a3.726 3.726 0 013.732 3.733v.4c-.066 2.066-1.733 3.732-3.732 3.732z" fill="#8FD1FF"/><path d="M375.334 138.894H360.27a3.727 3.727 0 01-3.733-3.732v-.4a3.727 3.727 0 013.733-3.733h15.064a3.727 3.727 0 013.733 3.733v.4a3.727 3.727 0 01-3.733 3.732zM367.536 86.237h-9.399a3.869 3.869 0 01-3.866-3.866 3.869 3.869 0 013.866-3.866h9.399a3.869 3.869 0 013.866 3.866 3.869 3.869 0 01-3.866 3.866zM319.011 138.894h-15.064a3.726 3.726 0 01-3.733-3.732v-.4a3.726 3.726 0 013.733-3.733h15.064a3.726 3.726 0 013.732 3.733v.4a3.726 3.726 0 01-3.732 3.732zM290.882 138.894h-15.064a3.726 3.726 0 01-3.732-3.732v-.4a3.726 3.726 0 013.732-3.733h15.064a3.726 3.726 0 013.733 3.733v.4a3.726 3.726 0 01-3.733 3.732zM262.754 138.894H247.69a3.727 3.727 0 01-3.733-3.732v-.4a3.727 3.727 0 013.733-3.733h15.064a3.727 3.727 0 013.733 3.733v.4a3.727 3.727 0 01-3.733 3.732z" fill="#B284E4"/><path fill-rule="evenodd" clip-rule="evenodd" d="M239.891 213.148h-95.25a14.905 14.905 0 01-14.93-14.931V15.783c0-8.266 6.732-14.931 14.93-14.931h95.184c8.265 0 14.93 6.665 14.93 14.93v182.369c.067 8.265-6.599 14.997-14.864 14.997z" fill="#5699FF"/><path fill-rule="evenodd" clip-rule="evenodd" d="M241.491 208.215h-98.383a8.932 8.932 0 01-8.932-8.931V14.716c0-4.932 4-8.932 8.932-8.932h98.383c4.932 0 8.932 4 8.932 8.932v184.568c0 4.932-4 8.931-8.932 8.931z" fill="#D8F3FF"/><path d="M241.491 208.882h-98.383c-5.332 0-9.598-4.333-9.598-9.598V14.716c0-5.332 4.332-9.598 9.598-9.598h98.383c5.332 0 9.598 4.332 9.598 9.598v184.568c0 5.265-4.332 9.598-9.598 9.598zM143.108 6.451c-4.532 0-8.265 3.733-8.265 8.265v184.568c0 4.532 3.733 8.265 8.265 8.265h98.383c4.533 0 8.265-3.733 8.265-8.265V14.716c0-4.532-3.732-8.265-8.265-8.265h-98.383z" fill="#5699FF"/><path fill-rule="evenodd" clip-rule="evenodd" d="M146.574 93.569h91.984a3.869 3.869 0 013.866 3.866v24.796a3.869 3.869 0 01-3.866 3.866h-91.984a3.869 3.869 0 01-3.866-3.866V97.435a3.869 3.869 0 013.866-3.866z" fill="#fff"/><path d="M238.625 127.096h-91.984a4.779 4.779 0 01-4.799-4.799V97.502a4.78 4.78 0 014.799-4.8h91.984a4.78 4.78 0 014.799 4.8v24.795a4.779 4.779 0 01-4.799 4.799zm-91.984-32.527c-1.6 0-2.933 1.333-2.933 2.933v24.795c0 1.6 1.333 2.933 2.933 2.933h91.984c1.6 0 2.933-1.333 2.933-2.933V97.502c0-1.6-1.333-2.933-2.933-2.933h-91.984z" fill="#5699FF"/><path fill-rule="evenodd" clip-rule="evenodd" d="M146.574 14.583h91.984a3.869 3.869 0 013.866 3.866v24.795a3.869 3.869 0 01-3.866 3.866h-91.984a3.869 3.869 0 01-3.866-3.866V18.45a3.869 3.869 0 013.866-3.866zM146.308 54.51h91.984a3.869 3.869 0 013.865 3.865v24.796a3.869 3.869 0 01-3.865 3.866h-91.984a3.869 3.869 0 01-3.866-3.866V58.375a3.869 3.869 0 013.866-3.866z" fill="#fff"/><path d="M238.558 48.11h-91.984c-2.666 0-4.866-2.2-4.866-4.865V18.449c0-2.666 2.2-4.866 4.866-4.866h91.984c2.666 0 4.866 2.2 4.866 4.866v24.796c0 2.732-2.133 4.865-4.866 4.865zm-91.984-32.527a2.845 2.845 0 00-2.866 2.866v24.796c0 1.6 1.267 2.866 2.866 2.866h91.984c1.6 0 2.866-1.267 2.866-2.866V18.449c0-1.6-1.266-2.866-2.866-2.866h-91.984z" fill="#8BB9FF"/><path fill-rule="evenodd" clip-rule="evenodd" d="M185.834 35.979c.533-.666.533-1.733.4-2.466-.133-.8-.333-1.333-1.6-1.866-1.266-.534-3.466-1.134-4.999-1.467-1.533-.333-2.333-.4-3.599-1-1.267-.533-3-1.6-4.933-2.2-1.933-.6-3.999-.866-6.065-.933-2.133-.066-4.266 0-6.466.534-2.199.533-4.532 1.666-6.265 2.133-1.667.533-2.733.466-3.333.733-.667.267-.867.733-1 1.333-.067.533 0 1.133-.067 1.4-.066.266-.2.333-.333.666-.067.334-.133 1.067-.067 1.6.067.533.2.867.6 1.133.4.267 1.133.4 2.2.6.333.067.666.133 1.133.133-.067-.266-.067-.533-.067-.8 0-2.2 1.8-3.999 4-3.999a4.011 4.011 0 013.799 5.266c4.333.2 10.198.4 14.331.466 1 0 1.933 0 2.733.067-.267-.533-.4-1.133-.4-1.8 0-2.2 1.799-3.999 3.999-3.999s3.999 1.8 3.999 4c0 .533-.066 1-.266 1.466 1.133-.2 1.866-.467 2.266-1z" fill="#8FD1FF"/><path fill-rule="evenodd" clip-rule="evenodd" d="M156.706 29.314l.333-1.534c-.866.267-1.666.6-2.466.867l-.133.533 2.266.134zM157.772 27.58l-.333 1.734 6.666.2-.267-2.867c-.4 0-.867 0-1.267.067-1.533.133-3.066.4-4.399.8-.2 0-.266.067-.4.067zM165.638 26.714l.266 2.866 9.798.267c-1.466-.733-2.866-1.467-4.332-1.933-1.467-.534-2.866-.8-4.333-1a5.066 5.066 0 00-1.399-.2z" fill="#D8F3FF"/><path fill-rule="evenodd" clip-rule="evenodd" d="M184.301 31.78c-.267-.134-.733-.267-1.067-.267-.333 0-.466.2-.266.333.2.2.8.4 1.2.467.333.067.533-.067.533-.2 0-.067-.133-.2-.4-.333z" fill="#fff"/><path d="M158.579 36.236a3.2 3.2 0 10-6.228-1.47 3.2 3.2 0 006.228 1.47z" fill="#8FD1FF"/><path fill-rule="evenodd" clip-rule="evenodd" d="M155.439 37.645a2.106 2.106 0 01-2.133-2.133c0-1.2.934-2.133 2.133-2.133 1.2 0 2.133.934 2.133 2.134 0 1.133-.933 2.132-2.133 2.132z" fill="#D8F3FF"/><path d="M155.439 35.98a.467.467 0 100-.934.467.467 0 000 .933zM183.069 36.27a3.2 3.2 0 10-6.228-1.47 3.2 3.2 0 006.228 1.47z" fill="#8FD1FF"/><path fill-rule="evenodd" clip-rule="evenodd" d="M179.902 37.645c-1.2 0-2.133-.933-2.133-2.133s.933-2.133 2.133-2.133 2.133.934 2.133 2.134c.066 1.133-.933 2.132-2.133 2.132z" fill="#D8F3FF"/><path fill-rule="evenodd" clip-rule="evenodd" d="M179.902 35.98a.456.456 0 01-.467-.467c0-.267.2-.467.467-.467.266 0 .466.2.466.467.067.266-.133.466-.466.466zM188.234 72.706c-1-.8-2-1.6-3.4-2.266-1.333-.667-3.066-1.067-4.266-1.4-1.2-.333-1.866-.533-3.066-1-1.2-.466-2.999-1.2-4.799-1.666-1.866-.467-3.799-.667-7.932-.334-4.066.334-10.265 1.067-13.464 1.467-3.2.4-3.333.4-3.466.533-.067.133-.134.4-.2 1.133-.067.733-.2 2-.067 2.866.133.867.533 1.4 1.733 1.933.2.067.467.2.733.267v-.467c0-2.2 1.733-3.932 3.933-3.932 2.2 0 3.933 1.733 3.933 3.932a3.7 3.7 0 01-.467 1.867l17.997-.067c-.267-.533-.467-1.2-.467-1.866 0-2.2 1.733-3.933 3.933-3.933 2.2 0 3.933 1.733 3.933 3.933a3.7 3.7 0 01-.467 1.866h5.732c.067-.933.134-1.866.134-2.866z" fill="#8FD1FF"/><path d="M156.372 76.182a3.332 3.332 0 10-4.713-4.713 3.332 3.332 0 104.713 4.713z" fill="#8FD1FF"/><path fill-rule="evenodd" clip-rule="evenodd" d="M154.04 76.105c1.199 0 2.199-1 2.199-2.2 0-1.199-1-2.199-2.199-2.199-1.2 0-2.2 1-2.2 2.2-.067 1.2.933 2.2 2.2 2.2z" fill="#D8F3FF"/><path fill-rule="evenodd" clip-rule="evenodd" d="M154.04 74.372c.266 0 .533-.2.533-.533 0-.266-.2-.533-.533-.533-.267 0-.534.2-.534.533s.2.533.534.533zM178.969 77.105c1.799 0 3.332-1.533 3.332-3.333 0-1.8-1.533-3.332-3.332-3.332-1.8 0-3.333 1.533-3.333 3.332a3.3 3.3 0 003.333 3.333z" fill="#8FD1FF"/><path fill-rule="evenodd" clip-rule="evenodd" d="M178.969 76.039c1.199 0 2.199-1 2.199-2.2 0-1.2-1-2.2-2.199-2.2-1.2 0-2.2 1-2.2 2.2-.067 1.2.933 2.2 2.2 2.2z" fill="#D8F3FF"/><path fill-rule="evenodd" clip-rule="evenodd" d="M178.969 74.306c.266 0 .533-.2.533-.534 0-.266-.2-.533-.533-.533-.267 0-.534.2-.534.533 0 .334.2.534.534.534z" fill="#8FD1FF"/><path fill-rule="evenodd" clip-rule="evenodd" d="M175.902 68.44c-1.266-.467-2.599-1-3.732-1.266-1.2-.267-2.267-.4-3.466-.467-1.2-.067-2.533 0-3.866 0l-.6 1.8c2.133.266 4.199.466 6.132.6 1.933.066 3.599.066 5.332 0 .067-.2.134-.467.2-.667zM163.905 66.64c-.2.667-.334 1.267-.534 1.933a947.112 947.112 0 00-5.665-1c2.133-.333 4.199-.6 6.199-.933z" fill="#D8F3FF"/><path fill-rule="evenodd" clip-rule="evenodd" d="M148.974 68.64c-.2-.2-.667-.267-1.133-.333-.067.2-.067.466-.134.866-.066.334-.066.8-.133 1.2.4-.2.8-.4 1.067-.666.466-.334.533-.8.333-1.067zM183.368 69.84c0 .466 0 .866.133 1.133.2.333.6.533 1.267.666.666.2 1.599.4 2.199.267.067 0 .133 0 .133-.067a9.828 9.828 0 00-2.332-1.4c-.334-.2-.867-.4-1.4-.6z" fill="#fff"/><path d="M238.358 87.97h-91.984a4.78 4.78 0 01-4.799-4.8V58.376a4.78 4.78 0 014.799-4.799h91.984a4.78 4.78 0 014.799 4.8V83.17a4.78 4.78 0 01-4.799 4.799zm-91.984-32.528c-1.599 0-2.933 1.334-2.933 2.933v24.796c0 1.6 1.334 2.933 2.933 2.933h91.984c1.6 0 2.933-1.333 2.933-2.933V58.375c0-1.6-1.333-2.933-2.933-2.933h-91.984zM238.358 48.11h-91.984a4.78 4.78 0 01-4.799-4.799V18.45a4.78 4.78 0 014.799-4.8h91.984a4.78 4.78 0 014.799 4.8v24.796c0 2.666-2.133 4.865-4.799 4.865zm-91.984-32.594c-1.599 0-2.933 1.333-2.933 2.933v24.796c0 1.6 1.334 2.932 2.933 2.932h91.984c1.6 0 2.933-1.333 2.933-2.932V18.449c0-1.6-1.333-2.933-2.933-2.933h-91.984z" fill="#5699FF"/><path fill-rule="evenodd" clip-rule="evenodd" d="M182.101 114.165c0-.866-.066-2.332-.733-3.399-.666-1.066-1.866-1.666-3.066-2.066-1.266-.4-2.533-.534-3.533-.6-.999-.067-1.599 0-2.199 0-1.733-1.333-3.466-2.6-5.666-3.266-2.2-.667-4.799-.667-7.332-.6-2.533.067-4.932.2-6.199.133-1.266 0-1.466-.2-1.8-.266a3.218 3.218 0 00-1.133 0c-.333.066-.6.066-.466.199.133.134.6.334.866.534.267.2.267.333-.266.933-.534.6-1.6 1.733-2.2 3.466-.6 1.733-.733 3.999-.8 6.266h1.133c-.133-.4-.2-.8-.2-1.2 0-2.333 1.933-4.266 4.266-4.266 2.4 0 4.266 1.933 4.266 4.266 0 .4-.067.8-.2 1.2h14.864c-.133-.4-.2-.8-.2-1.2 0-2.333 1.933-4.266 4.266-4.266 2.4 0 4.266 1.933 4.266 4.266 0 .4-.067.8-.2 1.2h1.733c.333-.267.533-.467.533-1.334z" fill="#8FD1FF"/><path fill-rule="evenodd" clip-rule="evenodd" d="M152.773 117.498a3.3 3.3 0 01-3.333-3.333c0-1.799 1.534-3.332 3.333-3.332a3.3 3.3 0 013.333 3.332 3.3 3.3 0 01-3.333 3.333z" fill="#8FD1FF"/><path fill-rule="evenodd" clip-rule="evenodd" d="M152.773 116.765c-1.466 0-2.599-1.133-2.599-2.6a2.602 2.602 0 012.599-2.599c1.467 0 2.6 1.133 2.6 2.599 0 1.467-1.133 2.6-2.6 2.6z" fill="#D8F3FF"/><path fill-rule="evenodd" clip-rule="evenodd" d="M152.773 115.032c-.466 0-.8-.4-.8-.8s.4-.8.8-.8c.467 0 .8.4.8.8s-.333.8-.8.8z" fill="#8FD1FF"/><path fill-rule="evenodd" clip-rule="evenodd" d="M169.037 107.7c1.133-.4-.133-1.2-1.4-1.733-1.333-.533-2.733-.8-3.932-.933-1.2-.134-2.133-.134-3.067-.134.067 1.067.134 2.067.2 3.133 3.533 0 7.066.067 8.199-.333zM159.439 104.9c.066 1 .133 2.067.2 3.067l-9.399-.2c.734-.867 1.4-1.733 2.133-2.6 2.333-.133 4.666-.2 7.066-.267z" fill="#D8F3FF"/><path fill-rule="evenodd" clip-rule="evenodd" d="M175.769 117.498a3.3 3.3 0 01-3.333-3.333c0-1.799 1.533-3.332 3.333-3.332a3.3 3.3 0 013.333 3.332c.067 1.867-1.467 3.333-3.333 3.333z" fill="#8FD1FF"/><path fill-rule="evenodd" clip-rule="evenodd" d="M175.769 116.765c-1.466 0-2.599-1.133-2.599-2.6a2.602 2.602 0 012.599-2.599c1.467 0 2.6 1.133 2.6 2.599 0 1.467-1.133 2.6-2.6 2.6z" fill="#D8F3FF"/><path fill-rule="evenodd" clip-rule="evenodd" d="M175.769 115.032c-.466 0-.8-.4-.8-.8s.4-.8.8-.8c.467 0 .8.4.8.8s-.333.8-.8.8z" fill="#8FD1FF"/><path fill-rule="evenodd" clip-rule="evenodd" d="M149.174 137.028h89.651c1.066 0 1.999.867 1.999 2a2.005 2.005 0 01-1.999 1.999h-89.651c-1.067 0-2-.866-2-1.999s.867-2 2-2z" fill="#5699FF"/><path fill-rule="evenodd" clip-rule="evenodd" d="M309.479 153.492h54.857c1.067 0 2 .866 2 1.999 0 1.067-.867 2-2 2h-54.857c-1.066 0-2-.866-2-2 0-1.133.934-1.999 2-1.999zM329.476 167.223h34.86c1.067 0 2 .866 2 1.999 0 1.067-.867 2-2 2h-34.86c-1.067 0-2-.866-2-2 0-1.133.933-1.999 2-1.999zM58.39 115.232h61.522c1.067 0 2 .866 2 2a2.005 2.005 0 01-2 1.999H58.39c-1.067 0-2-.866-2-1.999 0-1.134.933-2 2-2zM58.39 126.763h41.526c1.066 0 1.999.867 1.999 2a2.005 2.005 0 01-2 1.999H58.39c-1.067 0-2-.866-2-1.999 0-1.067.933-2 2-2z" fill="#8FD1FF"/><path fill-rule="evenodd" clip-rule="evenodd" d="M149.174 146.16h55.457c1.066 0 1.999.866 1.999 1.999 0 1.067-.866 2-1.999 2h-55.457c-1.067 0-2-.866-2-2 0-1.066.867-1.999 2-1.999z" fill="#5699FF"/><path fill-rule="evenodd" clip-rule="evenodd" d="M194.366 65.64h22.796c.666 0 1.266.6 1.266 1.267 0 .667-.6 1.267-1.266 1.267h-22.796c-.667 0-1.267-.6-1.267-1.267-.066-.666.534-1.266 1.267-1.266zM194.366 71.506h22.796c.666 0 1.266.6 1.266 1.267 0 .666-.6 1.266-1.266 1.266h-22.796c-.667 0-1.267-.6-1.267-1.266-.066-.667.534-1.267 1.267-1.267zM194.366 26.447h22.796c.666 0 1.266.6 1.266 1.267 0 .666-.6 1.266-1.266 1.266h-22.796c-.667 0-1.267-.6-1.267-1.266-.066-.733.534-1.267 1.267-1.267zM194.366 32.246h22.796c.666 0 1.266.6 1.266 1.267 0 .666-.6 1.266-1.266 1.266h-22.796c-.667 0-1.267-.6-1.267-1.266-.066-.667.534-1.267 1.267-1.267zM194.366 104.9h22.796c.666 0 1.266.6 1.266 1.267 0 .666-.6 1.266-1.266 1.266h-22.796c-.667 0-1.267-.6-1.267-1.266-.066-.667.534-1.267 1.267-1.267zM194.366 110.766h22.796c.666 0 1.266.6 1.266 1.266 0 .667-.6 1.267-1.266 1.267h-22.796c-.667 0-1.267-.6-1.267-1.267-.066-.733.534-1.266 1.267-1.266z" fill="#8FD1FF"/><path d="M230.36 115.632a5.733 5.733 0 10-.002-11.466 5.733 5.733 0 00.002 11.466z" fill="#B284E4"/><path d="M230.36 36.579a5.733 5.733 0 10-.001-11.465 5.733 5.733 0 00.001 11.465zM230.36 74.906a5.733 5.733 0 10-.001-11.466 5.733 5.733 0 00.001 11.466z" fill="#5699FF"/><path d="M229.826 188.286h-74.52c-6.999 0-12.664-5.666-12.664-12.665 0-6.999 5.665-12.664 12.664-12.664h74.52c6.999 0 12.665 5.665 12.665 12.664s-5.666 12.665-12.665 12.665z" fill="#B284E4"/><path fill-rule="evenodd" clip-rule="evenodd" d="M281.151 164.823l15.797-11.131v-.067h-31.595v.067l15.798 11.131z" fill="#8FD1FF"/><path fill-rule="evenodd" clip-rule="evenodd" d="M281.751 166.956c-.2.133-.4.2-.6.2-.2 0-.4-.067-.6-.2l-15.198-10.665v19.464h31.595v-19.464l-15.197 10.665z" fill="#8FD1FF"/><path fill-rule="evenodd" clip-rule="evenodd" d="M357.671 199.617h-40.26c-4.799 0-8.732-3.933-8.732-8.732 0-4.799 3.933-8.732 8.732-8.732h40.26c4.799 0 8.731 3.933 8.731 8.732 0 4.799-3.932 8.732-8.731 8.732z" fill="#5699FF"/><path d="M320.477 163.823h-11.798v11.798h11.798v-11.798z" fill="#8FD1FF"/><path fill-rule="evenodd" clip-rule="evenodd" d="M310.746 168.623l4.865 4.865c2.4-4.132 4.733-8.198 7.132-12.331-.533-.333-1.066-.6-1.599-.933-1.933 3.399-3.933 6.799-5.866 10.198l-3.266-3.266c-.4.533-.867 1-1.266 1.467z" fill="#5699FF"/><path d="M28.928 85.37H15.264c-.733 0-1.333-.6-1.333-1.333s.6-1.333 1.333-1.333h13.664c.733 0 1.333.6 1.333 1.333s-.6 1.333-1.333 1.333zM28.928 90.37H15.264c-.733 0-1.333-.6-1.333-1.334 0-.733.6-1.333 1.333-1.333h13.664c.733 0 1.333.6 1.333 1.334 0 .733-.6 1.333-1.333 1.333zM28.928 95.435H15.264c-.733 0-1.333-.6-1.333-1.333s.6-1.333 1.333-1.333h13.664c.733 0 1.333.6 1.333 1.333s-.6 1.333-1.333 1.333zM30.795 128.896c5.3 0 9.598-4.297 9.598-9.598 0-5.301-4.297-9.599-9.598-9.599-5.301 0-9.599 4.298-9.599 9.599s4.298 9.598 9.599 9.598z" fill="#5699FF"/><path fill-rule="evenodd" clip-rule="evenodd" d="M30.795 131.496c-7.266 0-13.198 5.932-13.198 13.197h26.395a13.142 13.142 0 00-13.197-13.197z" fill="#5699FF"/><path fill-rule="evenodd" clip-rule="evenodd" d="M341.14 37.579c-1.866-4.666-6.399-7.999-11.731-7.999-6.999 0-12.665 5.666-12.665 12.665 0 6.998 5.666 12.664 12.665 12.664 5.332 0 9.931-3.333 11.731-7.998h6.199c.2 0 .467-.067.6-.2l2.866-1.933c.4-.267.867-.267 1.267 0l2.532 1.666c.4.267.867.267 1.267 0l2.533-1.666c.4-.267.866-.267 1.266 0l2.2 1.533c.466.333 1.066.266 1.466-.134l8.399-8.532H341.14v-.066zm-18.463 8.265c-2 0-3.666-1.666-3.666-3.666s1.666-3.666 3.666-3.666c1.999 0 3.666 1.666 3.666 3.666a3.656 3.656 0 01-3.666 3.666z" fill="#9150D9"/><path d="M340.607 90.57a8.065 8.065 0 100-16.131 8.065 8.065 0 000 16.13z" fill="#fff"/><path d="M340.474 83.437c-.267 0-.467-.066-.667-.266l-2.2-2.2c-.399-.4-.399-1 0-1.333.4-.4 1-.4 1.334 0l1.533 1.533 3.132-3.133c.4-.4 1-.4 1.333 0 .4.4.4 1 0 1.333l-3.799 3.8c-.2.2-.4.266-.666.266z" fill="#B284E4"/><path fill-rule="evenodd" clip-rule="evenodd" d="M334.541 98.035h34.861c1.066 0 2 .866 2 2a2.005 2.005 0 01-2 1.999h-34.861a2.005 2.005 0 01-1.999-1.999c0-1.067.933-2 1.999-2z" fill="#fff"/><path fill-rule="evenodd" clip-rule="evenodd" d="M111.914 25.648H16.93c-1.866 0-3.332 1.666-3.332 3.666V52.31c0 2 1.533 3.666 3.332 3.666h94.984c1.866 0 3.332-1.667 3.332-3.666V29.314c0-2-1.466-3.666-3.332-3.666z" fill="#8FD1FF"/><path d="M106.915 49.044H43.859a.911.911 0 01-.933-.934c0-.533.4-.933.933-.933h63.056c.533 0 .933.4.933.933 0 .534-.4.934-.933.934zM31.728 44.31c-1.533 0-3.066-.599-4.2-1.732a5.843 5.843 0 01-1.732-4.2c0-1.6.6-3.066 1.733-4.199a5.914 5.914 0 018.398 0 5.843 5.843 0 011.733 4.2c0 1.6-.6 3.066-1.733 4.199-1.133 1.2-2.666 1.733-4.2 1.733zm0-9.93c-1.067 0-2.067.4-2.866 1.2-.734.732-1.2 1.799-1.2 2.865 0 1.067.4 2.067 1.2 2.867 1.6 1.6 4.132 1.6 5.732 0 .733-.734 1.2-1.8 1.2-2.867 0-1.066-.4-2.066-1.2-2.866-.8-.8-1.8-1.2-2.866-1.2z" fill="#5699FF"/><path d="M21.863 49.177c-.267 0-.467-.067-.667-.267-.4-.4-.333-1 0-1.333l6.332-6.265c.4-.4 1-.334 1.334 0 .4.4.333 1 0 1.333l-6.333 6.265c-.2.134-.4.267-.666.267z" fill="#5699FF"/></g><defs><clipPath id="clip0"><path fill="#fff" transform="translate(0 .852)" d="M0 0h380v212.296H0z"/></clipPath></defs></svg>